<mxfile host="app.diagrams.net" modified="2021-06-18T05:45:28.405Z" agent="5.0 (Macintosh; Intel Mac OS X 10_15_7) AppleWebKit/537.36 (KHTML, like Gecko) Chrome/91.0.4472.106 Safari/537.36" etag="kSH-4cRI8NYvNfALFakq" version="14.7.8" type="github">
  <diagram id="Gme2dEduZXb0gBwIDV0m" name="Page-1">
    <mxGraphModel dx="679" dy="320" grid="1" gridSize="10" guides="1" tooltips="1" connect="1" arrows="1" fold="1" page="1" pageScale="1" pageWidth="827" pageHeight="1169" math="0" shadow="0">
      <root>
        <mxCell id="0" />
        <mxCell id="1" parent="0" />
        <mxCell id="zooaVkoDeBYUoHzDZ_Ev-3" value="" style="edgeStyle=orthogonalEdgeStyle;rounded=0;orthogonalLoop=1;jettySize=auto;html=1;" edge="1" parent="1" source="zooaVkoDeBYUoHzDZ_Ev-1" target="zooaVkoDeBYUoHzDZ_Ev-2">
          <mxGeometry relative="1" as="geometry" />
        </mxCell>
        <mxCell id="zooaVkoDeBYUoHzDZ_Ev-1" value="start" style="ellipse;whiteSpace=wrap;html=1;" vertex="1" parent="1">
          <mxGeometry x="120" y="70" width="120" height="80" as="geometry" />
        </mxCell>
        <mxCell id="zooaVkoDeBYUoHzDZ_Ev-5" value="" style="edgeStyle=orthogonalEdgeStyle;rounded=0;orthogonalLoop=1;jettySize=auto;html=1;" edge="1" parent="1" source="zooaVkoDeBYUoHzDZ_Ev-2" target="zooaVkoDeBYUoHzDZ_Ev-4">
          <mxGeometry relative="1" as="geometry" />
        </mxCell>
        <mxCell id="zooaVkoDeBYUoHzDZ_Ev-2" value="&lt;span style=&quot;color: rgb(51 , 51 , 51) ; font-family: &amp;#34;open sans&amp;#34; , &amp;#34;clear sans&amp;#34; , &amp;#34;helvetica neue&amp;#34; , &amp;#34;helvetica&amp;#34; , &amp;#34;arial&amp;#34; , sans-serif ; font-size: 16px ; text-align: left ; background-color: rgb(255 , 255 , 255)&quot;&gt;create&lt;br&gt;cuisine type&lt;/span&gt;" style="whiteSpace=wrap;html=1;" vertex="1" parent="1">
          <mxGeometry x="120" y="240" width="120" height="60" as="geometry" />
        </mxCell>
        <mxCell id="zooaVkoDeBYUoHzDZ_Ev-7" value="" style="edgeStyle=orthogonalEdgeStyle;rounded=0;orthogonalLoop=1;jettySize=auto;html=1;" edge="1" parent="1" source="zooaVkoDeBYUoHzDZ_Ev-4" target="zooaVkoDeBYUoHzDZ_Ev-6">
          <mxGeometry relative="1" as="geometry" />
        </mxCell>
        <mxCell id="zooaVkoDeBYUoHzDZ_Ev-4" value="create&amp;nbsp;&lt;span style=&quot;color: rgb(51 , 51 , 51) ; font-family: &amp;#34;open sans&amp;#34; , &amp;#34;clear sans&amp;#34; , &amp;#34;helvetica neue&amp;#34; , &amp;#34;helvetica&amp;#34; , &amp;#34;arial&amp;#34; , sans-serif ; font-size: 16px ; text-align: left ; background-color: rgb(255 , 255 , 255)&quot;&gt;restaurant&lt;/span&gt;" style="whiteSpace=wrap;html=1;" vertex="1" parent="1">
          <mxGeometry x="120" y="380" width="120" height="60" as="geometry" />
        </mxCell>
        <mxCell id="zooaVkoDeBYUoHzDZ_Ev-9" value="" style="edgeStyle=orthogonalEdgeStyle;rounded=0;orthogonalLoop=1;jettySize=auto;html=1;" edge="1" parent="1" source="zooaVkoDeBYUoHzDZ_Ev-6" target="zooaVkoDeBYUoHzDZ_Ev-8">
          <mxGeometry relative="1" as="geometry" />
        </mxCell>
        <mxCell id="zooaVkoDeBYUoHzDZ_Ev-6" value="create&amp;nbsp;&lt;span style=&quot;color: rgb(51 , 51 , 51) ; font-family: &amp;#34;open sans&amp;#34; , &amp;#34;clear sans&amp;#34; , &amp;#34;helvetica neue&amp;#34; , &amp;#34;helvetica&amp;#34; , &amp;#34;arial&amp;#34; , sans-serif ; font-size: 16px ; text-align: left ; background-color: rgb(255 , 255 , 255)&quot;&gt;recipe item&lt;/span&gt;" style="whiteSpace=wrap;html=1;" vertex="1" parent="1">
          <mxGeometry x="120" y="520" width="120" height="60" as="geometry" />
        </mxCell>
        <mxCell id="zooaVkoDeBYUoHzDZ_Ev-11" value="" style="edgeStyle=orthogonalEdgeStyle;rounded=0;orthogonalLoop=1;jettySize=auto;html=1;" edge="1" parent="1" source="zooaVkoDeBYUoHzDZ_Ev-8" target="zooaVkoDeBYUoHzDZ_Ev-10">
          <mxGeometry relative="1" as="geometry" />
        </mxCell>
        <mxCell id="zooaVkoDeBYUoHzDZ_Ev-8" value="create&amp;nbsp;&lt;span style=&quot;color: rgb(51 , 51 , 51) ; font-family: &amp;#34;open sans&amp;#34; , &amp;#34;clear sans&amp;#34; , &amp;#34;helvetica neue&amp;#34; , &amp;#34;helvetica&amp;#34; , &amp;#34;arial&amp;#34; , sans-serif ; font-size: 16px ; text-align: left ; background-color: rgb(255 , 255 , 255)&quot;&gt;recipe item&lt;/span&gt;" style="whiteSpace=wrap;html=1;" vertex="1" parent="1">
          <mxGeometry x="120" y="660" width="120" height="60" as="geometry" />
        </mxCell>
        <mxCell id="zooaVkoDeBYUoHzDZ_Ev-13" value="" style="edgeStyle=orthogonalEdgeStyle;rounded=0;orthogonalLoop=1;jettySize=auto;html=1;" edge="1" parent="1" source="zooaVkoDeBYUoHzDZ_Ev-10" target="zooaVkoDeBYUoHzDZ_Ev-12">
          <mxGeometry relative="1" as="geometry" />
        </mxCell>
        <mxCell id="zooaVkoDeBYUoHzDZ_Ev-10" value="create&amp;nbsp;&lt;span style=&quot;color: rgb(51 , 51 , 51) ; font-family: &amp;#34;open sans&amp;#34; , &amp;#34;clear sans&amp;#34; , &amp;#34;helvetica neue&amp;#34; , &amp;#34;helvetica&amp;#34; , &amp;#34;arial&amp;#34; , sans-serif ; font-size: 16px ; text-align: left ; background-color: rgb(255 , 255 , 255)&quot;&gt;menu item&lt;/span&gt;" style="whiteSpace=wrap;html=1;" vertex="1" parent="1">
          <mxGeometry x="120" y="800" width="120" height="60" as="geometry" />
        </mxCell>
        <mxCell id="zooaVkoDeBYUoHzDZ_Ev-12" value="end&lt;br&gt;" style="ellipse;whiteSpace=wrap;html=1;" vertex="1" parent="1">
          <mxGeometry x="120" y="940" width="120" height="60" as="geometry" />
        </mxCell>
      </root>
    </mxGraphModel>
  </diagram>
</mxfile>
